<?xml version="1.0" encoding="UTF-8" standalone="no"?>
<svg
   xmlns:dc="http://purl.org/dc/elements/1.1/"
   xmlns:cc="http://creativecommons.org/ns#"
   xmlns:rdf="http://www.w3.org/1999/02/22-rdf-syntax-ns#"
   xmlns:svg="http://www.w3.org/2000/svg"
   xmlns="http://www.w3.org/2000/svg"
   viewBox="0 0 1056 1056"
   height="1056"
   width="1056"
   xml:space="preserve"
   id="svg2"
   version="1.1"><metadata
     id="metadata8"><rdf:RDF><cc:Work
         rdf:about=""><dc:format>image/svg+xml</dc:format><dc:type
           rdf:resource="http://purl.org/dc/dcmitype/StillImage" /></cc:Work></rdf:RDF></metadata><defs
     id="defs6" /><g
     transform="matrix(1.3333333,0,0,-1.3333333,0,1056)"
     id="g10"><g
       transform="scale(0.1)"
       id="g12"><path
         id="path14"
         style="fill:#231f20;fill-opacity:1;fill-rule:nonzero;stroke:none"
         d="m 3387.98,6645.35 -823.53,666.93 -244.08,-730.11 c 56.82,-28.5 100.81,-78.92 120.88,-140.13 l 936.91,165.31 c 1.29,13.39 4.7,26.16 9.82,38 z m 176.84,60.86 365.59,376.18 c -23.32,32.22 -37.04,71.79 -37.04,114.57 0,24.77 4.62,48.5 13.03,70.33 l -445.1,268.02 66.92,-815.97 c 13,-2.5 25.33,-7 36.6,-13.13 z m 1997.53,-214.57 442.74,-179.13 c 12.13,16.5 27.8,30.29 45.95,40.14 l -159.02,620.37 -329.67,-481.38 z M 6942.52,3756.3 6792.04,3111.6 c 43.28,-18.62 78.47,-52.47 98.75,-94.84 l 593.78,164.59 -468.08,591.49 c -21.49,-10.57 -45.68,-16.55 -71.26,-16.55 l -2.71,0.01 z m -1202.43,-747.84 -133.62,15.09 c -10.31,-34.02 -30,-63.92 -56.03,-86.82 l 184.69,-309.06 c 19.23,9.05 39.35,16.42 60.33,21.79 l -55.37,359 z m 59.47,61.91 729.22,-82.27 c 23.84,80.47 98.35,139.23 186.51,139.23 3.5,0 6.92,-0.14 10.33,-0.28 l 150.51,644.73 c -32.86,15.61 -59.6,42.01 -75.68,74.59 l -1079.02,-269.44 78.13,-506.56 z m -952.59,-989.68 695.06,182.32 c -2.79,17.52 -4.22,35.51 -4.22,53.8 0,113.05 54.66,213.33 138.95,275.92 l -184.68,309.03 c -20.49,-7.61 -42.63,-11.81 -65.76,-11.81 -24.24,0 -47.43,4.57 -68.72,12.95 l -510.63,-822.21 z m 712.27,116.52 -729.9,-191.44 448.95,-629.19 c 22.75,10.43 48.05,16.24 74.68,16.24 15.71,0 30.97,-1.99 45.51,-5.84 l 304.54,636.24 c -65.55,39.88 -116.7,101.1 -143.78,173.99 z m 662.79,76.87 824.02,-187.73 -285.6,657.25 c -14.52,-3.44 -29.62,-5.28 -45.16,-5.28 -103.24,0 -187.7,80.48 -194.09,182.09 l -710.9,80.17 52.56,-340.81 c 6.09,0.35 12.23,0.5 18.4,0.5 189.64,0 343.42,-153.81 343.42,-343.46 0,-14.46 -0.9,-28.77 -2.65,-42.73 z m -709.81,-1143.64 339.44,-269.292 -3.38,1113.842 c -29.21,2.78 -57.34,9.2 -83.98,18.82 l -304.57,-636.19 c 44.14,-32.72 72.77,-85.17 72.77,-144.3 0,-29.9 -7.34,-58.08 -20.28,-82.88 z m -4358.5,1936.52 428.13,138.88 c -0.43,4.78 -0.69,9.65 -0.69,14.59 0,13.78 1.79,27.16 5.16,39.92 l -609.828,316.58 c -3.387,-3.41 -6.937,-6.59 -10.722,-9.54 l 187.95,-500.43 z m -684.232,-222 619.412,200.93 -186.861,497.56 -6.375,-0.17 c -8.394,0 -16.629,0.87 -24.535,2.64 L 469.488,2844.96 Z m 643.422,137.13 -622.836,-202.07 668.576,-304.2 c 25.95,42.15 62.92,76.76 106.85,99.86 l -152.59,406.41 z m 1399.86,30 -205.14,-802.69 c 41.69,-21.55 72.06,-61.81 80.12,-109.68 l 623.55,-36.31 -430.97,954.55 c -16.36,-4.25 -33.5,-6.53 -51.15,-6.53 -5.53,0 -11,0.25 -16.41,0.66 z M 2440,1407.23 2255.65,1923.45 c -5.81,-0.68 -11.75,-1.03 -17.73,-1.03 -20.15,0 -39.4,3.94 -56.97,11.08 l -563.54,-806.84 689.93,70.31 c 3.27,91.43 56.2,170.27 132.66,210.26 z m -120.17,539.15 184.35,-516.2 c 16.23,3.38 33.08,5.16 50.32,5.16 35,0 68.26,-7.3 98.46,-20.43 l 353.94,580.56 -623.08,36.3 c -10.41,-35.57 -33.46,-65.8 -63.99,-85.39 z m -233.49,138.63 -440.68,134.15 c -34.1,-76.47 -102.03,-134.54 -184.72,-155.27 l 109.14,-886.34 555.2,794.89 c -24.42,26.96 -39.32,62.71 -39.32,101.93 0,3.59 0.15,7.12 0.38,10.64 z m 306.08,979.54 -761.74,-592.11 c 24.61,-41.25 38.78,-89.49 38.78,-141.05 0,-16.07 -1.41,-31.87 -4.06,-47.22 l 440.73,-134.15 c 26.25,45.58 75.42,76.31 131.79,76.31 l 3.62,-0.05 205.1,802.64 c -20.01,8.96 -38.29,21.04 -54.22,35.63 z m -63.24,117.12 -440.02,3.53 c -15.96,-69.19 -78,-120.77 -152,-120.77 -57.14,0 -107.13,30.76 -134.29,76.61 l -425.18,-137.92 151.55,-403.47 c 20.66,4.92 42.22,7.58 64.38,7.58 76.25,0 145.25,-30.93 195.17,-80.93 l 761.74,592.07 c -10.4,19.44 -17.75,40.71 -21.35,63.3 z m -439.49,71.5 439.99,-3.55 c 5.56,31.3 18.33,60.15 36.51,84.75 l -212.15,220.56 -281.49,-257.02 c 7.87,-13.7 13.77,-28.81 17.14,-44.74 z m -828.33,967.34 -107.915,-465.05 c 33.598,-19.84 56.185,-56.4 56.185,-98.24 0,-6.78 -0.61,-13.42 -1.73,-19.92 l 609.85,-316.54 c 4.89,5.84 10.25,11.29 15.91,16.37 l -494.67,894.16 c -20.7,-7.22 -42.91,-11.11 -66.06,-11.11 -3.9,0 -7.72,0.1 -11.57,0.33 z m 4933.8,1943.07 -580.35,-149.78 c 0.99,-8.75 1.47,-17.59 1.47,-26.62 0,-48.9 -14.64,-94.43 -39.74,-132.44 l 316.69,-280.32 326.6,556.51 c -9.72,9.57 -18.07,20.58 -24.67,32.65 z m -597.26,-83.98 580.29,149.76 v 0.87 c 0,6.48 0.46,12.84 1.29,19.08 l -456.54,184.76 -184.6,-269.64 c 25.54,-23.45 46.03,-52.33 59.56,-84.83 z m -443.68,542.45 163.3,-401.37 c 18.61,4.65 38.1,7.12 58.17,7.12 38.26,0 74.42,-8.97 106.5,-24.85 l 176.13,257.22 -474.14,191.85 c -8.42,-11.44 -18.51,-21.59 -29.96,-29.97 z m -681.57,506.06 500.22,-295.76 c 19.91,20.09 45.96,34.17 75.05,39.2 l 42.98,571.65 -608.4,-214.26 c 1.69,-10.4 2.62,-21.09 2.62,-31.98 0,-24.2 -4.42,-47.41 -12.47,-68.85 z m -1827.6,-823.23 656.7,-280.33 c 32.34,47.85 87.11,79.32 149.21,79.32 10.39,0 20.62,-0.9 30.55,-2.6 l 147.75,391.67 c -16.65,12.22 -30.22,28.51 -39.25,47.31 l -936.97,-165.38 0.14,-7.8 c 0,-21.53 -2.87,-42.35 -8.13,-62.19 z m -731.7,-723.05 349.56,596.9 c -44.39,35.32 -75.98,86.03 -86.81,144 l -818.01,-35.6 555.26,-705.3 z M 5665.8,3490.06 5538.21,3229.45 c 42.96,-31.86 71.94,-81.57 75.83,-138.18 l 115.26,-13.01 -63.5,411.8 z m -858.68,-32.5 473.47,-260.4 c 13.4,16.4 29.52,30.46 47.66,41.58 l -521.13,1356.12 v -1137.3 z m 0,-1311.94 492.63,793.29 c -37.85,34.4 -61.61,84.03 -61.61,139.23 0,20.72 3.31,40.7 9.54,59.34 l -440.56,242.33 V 2928.1 2145.62 Z M 4106,802.82 5175.54,1185.84 c -1.35,8.94 -2.08,18.13 -2.08,27.48 0,47.92 18.8,91.48 49.46,123.7 L 4776.06,1963.33 4106,802.82 Z m -618.33,424.06 -686.27,-53.76 c -4.17,-70.45 -37.87,-132.99 -88.92,-175.421 l 392.83,-633.57 657.01,387.062 -274.65,475.689 z m -422.99,732.57 -353.62,-580.05 c 42.3,-34.66 72.92,-83.04 85.04,-138.33 l 653.8,51.2 -385.22,667.18 z m -33.3,1220.45 h -302.5 c -9.44,-55.63 -41.53,-103.53 -86.51,-133.91 l 389.01,-861.47 v 743.58 251.8 z m 0,1393.86 -405.16,-1181.87 c 53.35,-29.16 92.11,-81.68 102.66,-143.75 h 302.5 v 1325.62 z m -841.72,-957.69 225.57,-234.5 c 32.47,22.09 71.68,35.08 113.95,35.08 11.03,0 21.91,-0.91 32.5,-2.66 l 456.03,1330.3 H 2189.66 V 3616.07 Z m -809.89,1261.62 -177.46,-303.01 c 43.7,-36.85 71.5,-92 71.5,-153.63 0,-63.38 -29.36,-119.89 -75.26,-156.74 l 494.72,-894.15 c 13.92,4.06 28.65,6.25 43.89,6.25 33.3,0 64.13,-10.42 89.46,-28.19 l 285.75,260.93 -732.6,1268.54 z m -1129.426,-926 556.902,-222.53 c 19.223,23.57 47.668,39.29 79.813,41.69 l 107.949,465.02 c -72.246,30.43 -122.942,101.9 -122.942,185.18 0,31.53 7.266,61.4 20.25,87.97 L 375.012,4880.78 C 295.543,4584.19 252.293,4272.83 250.344,3951.69 Z M 405.367,2870.1 812.008,3579.81 c -18.797,20.35 -30.32,47.52 -30.32,77.41 0,2.98 0.097,5.88 0.355,8.79 l -531.488,212.38 c 4.715,-350.12 58.508,-688.4 154.812,-1008.29 z m 499.317,-1033.11 280.926,313.34 c -42.23,48.45 -67.8,111.78 -67.8,181.06 0,28.69 4.38,56.34 12.51,82.35 L 453.547,2721.71 C 563.953,2404.79 716.551,2107.6 904.684,1836.99 Z m 597.766,-668.6 -109.23,887.19 c -58.35,0.08 -112.43,18.33 -156.97,49.35 L 945.063,1780.17 c 114.747,-158.56 241.817,-307.62 379.917,-445.68 57.28,-57.33 116.49,-112.68 177.47,-166.1 z M 3021.34,370.512 2654.72,961.82 c -30.65,-13.609 -64.56,-21.218 -100.22,-21.218 -116.35,0 -213.94,80.428 -240.33,188.668 l -681.88,-69.5 C 2034.83,738.492 2506.5,500.09 3021.34,370.512 Z M 4445.39,297.23 3808.05,699.191 3186.42,332.992 c 236.82,-48.051 481.9,-73.273 732.86,-73.273 178.62,0 354.28,12.832 526.11,37.511 z M 5826.65,794.039 5469.86,1077.1 c -31.4,-27.03 -72.24,-43.31 -116.89,-43.31 -32.73,0 -63.42,8.75 -89.88,24.12 L 4629.86,328.57 c 430.64,84.571 834.37,244.469 1196.79,465.469 z m 1223.76,1221.541 -843.43,192.16 c -42.05,-125.54 -154.65,-218.79 -290.69,-232.58 l 3.4,-1122.422 c 214.53,139.813 413.55,301.422 593.89,481.752 204.53,204.56 384.97,433.1 536.83,681.09 z m 447.11,1098.8 -588.6,-163.17 c 0.58,-6.07 0.88,-12.18 0.88,-18.39 0,-67.65 -34.57,-127.23 -86.99,-162.11 L 7108.4,2113.6 c 175.91,308.42 308.43,644.77 389.12,1000.78 z m 39.6,1428.5 -462.46,-528.85 c 20.07,-26.91 31.91,-60.24 31.91,-96.38 0,-38.95 -13.8,-74.73 -36.8,-102.61 l 454.16,-573.91 c 42.28,222.78 64.42,452.62 64.42,687.66 0,209.24 -17.56,414.42 -51.23,614.09 z m -512.87,1341.19 -176.08,-328.36 h 2.13 l -24.1,-41.76 137.82,-1436 c 21.38,-2.48 41.5,-9.15 59.46,-19.15 l 498.15,569.68 c -87.67,453.86 -259.05,877.93 -497.38,1255.59 z M 5961,6977.55 6116.84,6369.52 h 0.64 c 76.91,0 139.3,-62.4 139.3,-139.29 l -0.18,-7.29 683.05,-210.74 c -126.53,183.07 -269.21,354.04 -426.07,510.89 -168.71,168.69 -353.73,321.04 -552.58,454.46 z m -1001.35,470.61 -43.75,-581.72 c 55.29,-18.43 95.17,-70.67 95.17,-132.12 0,-6.49 -0.44,-12.87 -1.29,-19.11 l 487.99,-197.45 360.44,526.34 c -277,172.77 -578.68,309.61 -898.56,404.06 z m -1435.12,128.64 417.06,-251.16 c 35.91,41.19 88.76,67.2 147.64,67.2 73.21,0 137.01,-40.18 170.65,-99.69 l 553.4,194.89 c -286.15,71.7 -585.65,109.83 -894,109.83 -133.38,0 -265.04,-7.17 -394.75,-21.07 z m -909.78,-217.72 816.07,-660.9 c 8.97,6.43 18.93,11.69 29.43,15.6 l -69.41,846.24 c -269.24,-38.86 -529.08,-106.95 -776.09,-200.94 z m -772.22,-405.35 261.13,-372.1 c 32.7,16.66 69.75,26.02 108.93,26.02 14.74,0 29.21,-1.36 43.25,-3.88 l 236,705.97 c -229.3,-96.94 -446.63,-216.54 -649.31,-356.01 z m -674.87,-598.07 805.51,35.05 c 5.8,59.64 33.41,112.89 74.76,151.72 l -261.16,372.18 c -164.58,-117.75 -319.06,-248.75 -461.79,-391.52 -54.19,-54.13 -106.61,-109.99 -157.32,-167.43 z m -591.93,-914.04 412.461,114.09 58.329,655.4 c -186.778,-234.82 -345.454,-493 -470.79,-769.49 z m 447.98,52.59 -483.265,-132.98 C 483.941,5228.16 435.129,5091.08 394.453,4950.51 L 932.039,4564.2 c 36.242,35.67 85.991,57.73 140.891,57.73 24.89,0 48.76,-4.54 70.75,-12.82 l 196.94,336.33 -316.91,548.77 z m 623.48,61.5 -527.86,670.42 -61.85,-670.42 h 589.71 z m 767.35,0 -167.69,573.23 c -11.18,-1.63 -22.62,-2.46 -34.26,-2.46 -32.22,0 -62.97,6.35 -91.05,17.85 l -344.72,-588.62 h 637.72 z m 978.63,0 -95.08,194.44 c -15.05,-4.07 -30.84,-6.25 -47.13,-6.25 -99.39,0 -180.02,80.61 -180.02,179.97 0,13.06 1.44,25.82 4.1,38.09 l -656.71,280.32 c -25.02,-41.18 -62.07,-74.23 -106.23,-94.33 l 173.26,-592.24 h 907.81 z m 2218.65,0 -280.33,248.16 c -41.98,-35.7 -96.39,-57.27 -155.8,-57.27 -73.51,0 -139.38,33 -183.49,84.99 l -438.72,-275.88 h 1058.34 z m 710.92,0 -191.83,535.88 c -4.42,-0.45 -8.89,-0.66 -13.43,-0.66 -13.56,0 -26.65,1.99 -39.04,5.59 l -317.37,-540.81 h 561.67 z m 448.29,0 201.21,375.21 -735.7,226.98 c -10.52,-17.27 -24.7,-32.03 -41.45,-43.31 l 200.04,-558.88 h 375.9 z m -431.53,-884.52 528.33,-611.91 c 9.02,4.95 18.54,9.05 28.47,12.18 l -128.68,1341 -428.12,-741.27 z m -586.89,-1016.24 1031.32,257.55 -0.09,5.15 c 0,36.5 12.13,70.15 32.55,97.18 l -512.89,594.02 -550.89,-953.9 z m -275.4,-395.6 170.46,348.24 -3.12,20.37 4.31,1.08 V 4744.29 H 4822.5 l 569.1,-1481.17 c 11.24,2.1 22.85,3.21 34.72,3.21 17.63,0 34.74,-2.42 50.89,-6.98 z m -1420.4,2922.52 c 16.87,13.75 36.61,24.13 58.18,30.19 l -48.05,790.31 c -32.27,3.66 -62.16,15.17 -87.72,32.57 l -365.6,-376.21 c 10.93,-18.73 17.23,-40.49 17.23,-63.71 0,-18.34 -3.92,-35.82 -10.96,-51.55 l 436.92,-361.6 z M 4013.13,5987 c -10.15,21.11 -15.86,44.79 -15.86,69.82 0,25.84 6.11,50.25 16.92,71.9 l -437.74,362.3 c -20.51,-14.27 -45.39,-22.65 -72.24,-22.65 -3.81,0 -7.54,0.16 -11.23,0.48 l -147.8,-391.65 c 51.41,-31.66 85.76,-88.5 85.76,-153.33 0,-58.8 -28.23,-111.01 -71.84,-143.86 l 101,-206.58 553.03,413.57 z m 186.42,-86.02 c -13.13,-3.45 -26.89,-5.3 -41.1,-5.3 -39.36,0 -75.42,14.11 -103.41,37.52 l -504.82,-377.49 h 258.43 34.12 V 5521.57 1641.02 757.73 l 691.14,-435.898 677.82,780.698 c -4.85,6.15 -9.27,12.62 -13.26,19.38 L 3995.73,692.879 v 46.133 24.347 877.661 3880.55 34.14 h 34.12 349.31 l -179.61,345.27 z m 97.77,237.62 c 14.16,-23.96 22.28,-51.92 22.28,-81.78 0,-50.38 -23.11,-95.32 -59.29,-124.89 l 188.24,-361.88 507.37,319.11 c -13.36,29.96 -20.8,63.11 -20.8,98.02 0,88.62 47.92,166.04 119.28,207.79 l -163.3,401.36 c -6.32,-0.88 -12.75,-1.31 -19.31,-1.31 -27.25,0 -52.68,7.81 -74.16,21.36 L 4297.32,6138.6 Z m -114.35,77.52 c 25.08,-3.84 48.3,-13.46 68.2,-27.49 l 499.43,477 c -11.51,20.25 -18.1,43.7 -18.1,68.69 0,13.67 1.98,26.88 5.66,39.37 l -500.22,295.79 c -26.42,-30.77 -62.25,-53.25 -103,-63 l 48.03,-790.36 z m -263.69,1450 c 1031.82,0 1966.18,-418.42 2642.52,-1094.8 C 7238.16,5895 7656.57,4960.62 7656.57,3928.79 7656.57,2896.97 7238.16,1962.61 6561.8,1286.27 5885.46,609.898 4951.1,191.488 3919.28,191.488 c -1031.85,0 -1966.21,418.41 -2642.55,1094.782 -676.367,676.34 -1094.781,1610.7 -1094.781,2642.52 0,1031.83 418.414,1966.21 1094.781,2642.53 676.34,676.38 1610.7,1094.8 2642.55,1094.8 v 0" /></g></g></svg>