<?xml version="1.0" encoding="UTF-8" standalone="no"?>
<svg
   xmlns:dc="http://purl.org/dc/elements/1.1/"
   xmlns:cc="http://creativecommons.org/ns#"
   xmlns:rdf="http://www.w3.org/1999/02/22-rdf-syntax-ns#"
   xmlns:svg="http://www.w3.org/2000/svg"
   xmlns="http://www.w3.org/2000/svg"
   viewBox="0 0 1056 1056"
   height="1056"
   width="1056"
   xml:space="preserve"
   id="svg2"
   version="1.1"><metadata
     id="metadata8"><rdf:RDF><cc:Work
         rdf:about=""><dc:format>image/svg+xml</dc:format><dc:type
           rdf:resource="http://purl.org/dc/dcmitype/StillImage" /></cc:Work></rdf:RDF></metadata><defs
     id="defs6" /><g
     transform="matrix(1.3333333,0,0,-1.3333333,0,1056)"
     id="g10"><g
       transform="scale(0.1)"
       id="g12"><path
         id="path14"
         style="fill:#ffffff;fill-opacity:1;fill-rule:nonzero;stroke:none"
         d="m 3387.98,6676.54 -823.53,666.93 -244.08,-730.09 c 56.82,-28.52 100.81,-78.94 120.88,-140.14 l 936.91,165.31 c 1.29,13.38 4.7,26.15 9.82,37.99 z m 176.84,60.86 365.59,376.18 c -23.32,32.22 -37.04,71.79 -37.04,114.58 0,24.78 4.62,48.49 13.03,70.32 l -445.1,268.03 66.92,-815.98 c 13,-2.5 25.33,-6.99 36.6,-13.13 z m 1997.53,-214.57 442.74,-179.13 c 12.13,16.51 27.8,30.3 45.95,40.15 l -159.02,620.36 -329.67,-481.38 z M 6942.52,3787.5 6792.04,3142.79 c 43.28,-18.61 78.47,-52.47 98.75,-94.83 l 593.78,164.59 -468.08,591.49 c -21.49,-10.57 -45.68,-16.56 -71.26,-16.56 l -2.71,0.02 z m -1202.43,-747.84 -133.62,15.08 c -10.31,-34.02 -30,-63.92 -56.03,-86.8 l 184.69,-309.08 c 19.23,9.06 39.35,16.43 60.33,21.8 l -55.37,359 z m 59.47,61.91 729.22,-82.28 c 23.84,80.47 98.35,139.23 186.51,139.23 3.5,0 6.92,-0.13 10.33,-0.28 l 150.51,644.73 c -32.86,15.61 -59.6,42.01 -75.68,74.59 l -1079.02,-269.43 78.13,-506.56 z m -952.59,-989.69 695.06,182.33 c -2.79,17.52 -4.22,35.5 -4.22,53.8 0,113.05 54.66,213.32 138.95,275.92 l -184.68,309.04 c -20.49,-7.63 -42.63,-11.83 -65.76,-11.83 -24.24,0 -47.43,4.58 -68.72,12.96 l -510.63,-822.22 z m 712.27,116.52 -729.9,-191.43 448.95,-629.2 c 22.75,10.44 48.05,16.24 74.68,16.24 15.71,0 30.97,-1.99 45.51,-5.83 l 304.54,636.23 c -65.55,39.88 -116.7,101.1 -143.78,173.99 z m 662.79,76.87 824.02,-187.72 -285.6,657.25 c -14.52,-3.45 -29.62,-5.28 -45.16,-5.28 -103.24,0 -187.7,80.48 -194.09,182.08 l -710.9,80.17 52.56,-340.81 c 6.09,0.36 12.23,0.51 18.4,0.51 189.64,0 343.42,-153.82 343.42,-343.46 0,-14.47 -0.9,-28.78 -2.65,-42.74 z m -709.81,-1143.63 339.44,-269.288 -3.38,1113.828 c -29.21,2.78 -57.34,9.2 -83.98,18.84 l -304.57,-636.21 c 44.14,-32.71 72.77,-85.16 72.77,-144.3 0,-29.88 -7.34,-58.07 -20.28,-82.87 z m -4358.5,1936.51 428.13,138.88 c -0.43,4.79 -0.69,9.67 -0.69,14.59 0,13.79 1.79,27.17 5.16,39.92 l -609.828,316.59 c -3.387,-3.41 -6.937,-6.6 -10.722,-9.54 l 187.95,-500.44 z m -684.232,-222 619.412,200.94 -186.861,497.55 -6.375,-0.17 c -8.394,0 -16.629,0.88 -24.535,2.66 L 469.488,2876.15 Z m 643.422,137.13 -622.832,-202.07 668.572,-304.2 c 25.95,42.15 62.92,76.77 106.85,99.87 l -152.59,406.4 z m 1399.86,30 -205.14,-802.68 c 41.69,-21.56 72.06,-61.81 80.12,-109.68 l 623.55,-36.3 -430.97,954.53 c -16.36,-4.25 -33.5,-6.53 -51.15,-6.53 -5.53,0 -11,0.26 -16.41,0.66 z M 2440,1438.42 2255.65,1954.65 c -5.81,-0.68 -11.75,-1.04 -17.73,-1.04 -20.15,0 -39.4,3.94 -56.97,11.09 l -563.54,-806.85 689.93,70.32 c 3.27,91.44 56.2,170.26 132.66,210.25 z m -120.17,539.15 184.35,-516.19 c 16.23,3.38 33.08,5.15 50.32,5.15 35,0 68.26,-7.29 98.46,-20.43 l 353.94,580.57 -623.08,36.3 c -10.41,-35.58 -33.46,-65.8 -63.99,-85.4 z m -233.49,138.63 -440.68,134.15 c -34.1,-76.47 -102.03,-134.54 -184.72,-155.27 l 109.14,-886.32 555.2,794.87 c -24.42,26.96 -39.32,62.72 -39.32,101.94 0,3.59 0.15,7.11 0.38,10.63 z m 306.08,979.54 -761.74,-592.1 c 24.61,-41.26 38.78,-89.49 38.78,-141.06 0,-16.07 -1.41,-31.87 -4.06,-47.21 l 440.73,-134.15 c 26.25,45.57 75.42,76.31 131.79,76.31 l 3.62,-0.06 205.1,802.64 c -20.01,8.97 -38.29,21.04 -54.22,35.63 z m -63.24,117.12 -440.02,3.53 c -15.96,-69.18 -78,-120.77 -152,-120.77 -57.14,0 -107.13,30.76 -134.29,76.62 l -425.18,-137.93 151.55,-403.46 c 20.66,4.91 42.22,7.57 64.38,7.57 76.25,0 145.25,-30.93 195.17,-80.92 l 761.74,592.06 c -10.4,19.44 -17.75,40.72 -21.35,63.3 z m -439.49,71.51 439.99,-3.55 c 5.56,31.31 18.33,60.15 36.51,84.74 l -212.15,220.57 -281.49,-257.02 c 7.87,-13.71 13.77,-28.81 17.14,-44.74 z m -828.33,967.34 -107.915,-465.06 c 33.598,-19.83 56.185,-56.4 56.185,-98.24 0,-6.78 -0.61,-13.41 -1.73,-19.91 l 609.85,-316.54 c 4.89,5.84 10.25,11.29 15.91,16.37 l -494.67,894.16 c -20.7,-7.22 -42.91,-11.11 -66.06,-11.11 -3.9,0 -7.72,0.09 -11.57,0.33 z M 5995.16,6194.78 5414.81,6045 c 0.99,-8.74 1.47,-17.6 1.47,-26.62 0,-48.91 -14.64,-94.44 -39.74,-132.44 l 316.69,-280.33 326.6,556.52 c -9.72,9.58 -18.07,20.58 -24.67,32.65 z m -597.26,-83.98 580.29,149.75 v 0.88 c 0,6.48 0.46,12.84 1.29,19.08 l -456.54,184.75 -184.6,-269.64 c 25.54,-23.43 46.03,-52.32 59.56,-84.82 z m -443.68,542.45 163.3,-401.38 c 18.61,4.65 38.1,7.12 58.17,7.12 38.26,0 74.42,-8.96 106.5,-24.85 l 176.13,257.22 -474.14,191.86 c -8.42,-11.44 -18.51,-21.59 -29.96,-29.97 z m -681.57,506.05 500.22,-295.75 c 19.91,20.08 45.96,34.16 75.05,39.19 l 42.98,571.66 -608.4,-214.27 c 1.69,-10.4 2.62,-21.09 2.62,-31.97 0,-24.21 -4.42,-47.42 -12.47,-68.86 z m -1827.6,-823.22 656.7,-280.33 c 32.34,47.84 87.11,79.32 149.21,79.32 10.39,0 20.62,-0.91 30.55,-2.61 l 147.75,391.68 c -16.65,12.22 -30.22,28.51 -39.25,47.31 l -936.97,-165.39 0.14,-7.79 c 0,-21.53 -2.87,-42.34 -8.13,-62.19 z m -731.7,-723.05 349.56,596.89 c -44.39,35.33 -75.98,86.03 -86.81,144 l -818.01,-35.59 555.26,-705.3 z M 5665.8,3521.26 5538.21,3260.64 c 42.96,-31.84 71.94,-81.57 75.83,-138.17 l 115.26,-13.01 -63.5,411.8 z m -858.68,-32.49 473.47,-260.41 c 13.4,16.39 29.52,30.46 47.66,41.57 L 4807.12,4626.05 V 3488.77 Z m 0,-1311.96 492.63,793.3 c -37.85,34.39 -61.61,84.02 -61.61,139.22 0,20.73 3.31,40.71 9.54,59.35 L 4807.12,3411 V 2959.3 2176.81 Z M 4106,834.02 5175.54,1217.03 c -1.35,8.94 -2.08,18.13 -2.08,27.48 0,47.93 18.8,91.48 49.46,123.71 L 4776.06,1994.52 4106,834.02 Z m -618.33,424.05 -686.27,-53.76 c -4.17,-70.45 -37.87,-132.99 -88.92,-175.42 l 392.83,-633.57 657.01,387.071 -274.65,475.679 z m -422.99,732.58 -353.62,-580.05 c 42.3,-34.66 72.92,-83.05 85.04,-138.34 l 653.8,51.2 -385.22,667.19 z m -33.3,1220.44 h -302.5 c -9.44,-55.62 -41.53,-103.53 -86.51,-133.9 l 389.01,-861.48 v 743.59 251.79 z m 0,1393.86 -405.16,-1181.86 c 53.35,-29.17 92.11,-81.69 102.66,-143.75 h 302.5 v 1325.61 z m -841.72,-957.68 225.57,-234.51 c 32.47,22.09 71.68,35.08 113.95,35.08 11.03,0 21.91,-0.91 32.5,-2.66 l 456.03,1330.3 H 2189.66 V 3647.27 Z m -809.89,1261.62 -177.46,-303 c 43.7,-36.87 71.5,-92.02 71.5,-153.65 0,-63.38 -29.36,-119.89 -75.26,-156.74 l 494.72,-894.15 c 13.92,4.08 28.65,6.25 43.89,6.25 33.3,0 64.13,-10.42 89.46,-28.19 l 285.75,260.94 -732.6,1268.54 z M 250.344,3982.88 807.246,3760.36 c 19.223,23.56 47.668,39.28 79.813,41.68 l 107.949,465.02 c -72.246,30.44 -122.942,101.9 -122.942,185.18 0,31.54 7.266,61.4 20.25,87.98 L 375.012,4911.98 C 295.543,4615.39 252.293,4304.02 250.344,3982.88 Z M 405.367,2901.3 812.008,3611 c -18.797,20.35 -30.32,47.52 -30.32,77.41 0,2.98 0.097,5.89 0.355,8.79 l -531.488,212.39 c 4.715,-350.13 58.508,-688.4 154.812,-1008.29 z m 499.317,-1033.12 280.926,313.34 c -42.23,48.45 -67.8,111.78 -67.8,181.06 0,28.7 4.38,56.34 12.51,82.36 L 453.547,2752.9 c 110.406,-316.92 263.004,-614.1 451.137,-884.72 z m 597.766,-668.59 -109.23,887.19 c -58.35,0.07 -112.43,18.32 -156.97,49.34 L 945.063,1811.37 c 114.747,-158.56 241.817,-307.62 379.917,-445.68 57.28,-57.32 116.49,-112.68 177.47,-166.1 z M 3021.34,401.711 2654.72,993.012 c -30.65,-13.602 -64.56,-21.211 -100.22,-21.211 -116.35,0 -213.94,80.419 -240.33,188.669 l -681.88,-69.51 C 2034.83,769.68 2506.5,531.301 3021.34,401.711 Z M 4445.39,328.43 3808.05,730.391 3186.42,364.199 c 236.82,-48.058 481.9,-73.289 732.86,-73.289 178.62,0 354.28,12.832 526.11,37.52 z m 1381.26,496.8 -356.79,283.06 c -31.4,-27.01 -72.24,-43.31 -116.89,-43.31 -32.73,0 -63.42,8.76 -89.88,24.13 L 4629.86,359.77 c 430.64,84.562 834.37,244.472 1196.79,465.46 z m 1223.76,1221.54 -843.43,192.16 c -42.05,-125.54 -154.65,-218.79 -290.69,-232.58 l 3.4,-1122.42 c 214.53,139.82 413.55,301.42 593.89,481.76 204.53,204.55 384.97,433.11 536.83,681.08 z m 447.11,1098.8 -588.6,-163.16 c 0.58,-6.07 0.88,-12.19 0.88,-18.39 0,-67.65 -34.57,-127.24 -86.99,-162.11 l 285.59,-657.12 c 175.91,308.42 308.43,644.78 389.12,1000.78 z m 39.6,1428.5 -462.46,-528.84 c 20.07,-26.91 31.91,-60.24 31.91,-96.39 0,-38.95 -13.8,-74.72 -36.8,-102.61 l 454.16,-573.9 c 42.28,222.77 64.42,452.61 64.42,687.66 0,209.23 -17.56,414.42 -51.23,614.08 z M 7024.25,5915.26 6848.17,5586.9 h 2.13 l -24.1,-41.76 137.82,-1436 c 21.38,-2.46 41.5,-9.13 59.46,-19.14 l 498.16,569.67 c -87.67,453.87 -259.06,877.94 -497.39,1255.59 z M 5961,7008.75 6116.84,6400.72 h 0.64 c 76.91,0 139.3,-62.39 139.3,-139.29 l -0.18,-7.29 683.05,-210.73 c -126.53,183.05 -269.21,354.02 -426.07,510.87 -168.71,168.7 -353.73,321.04 -552.58,454.47 z m -1001.35,470.6 -43.75,-581.72 c 55.29,-18.42 95.17,-70.66 95.17,-132.11 0,-6.5 -0.44,-12.87 -1.29,-19.11 l 487.99,-197.46 360.44,526.34 c -277,172.77 -578.68,309.62 -898.56,404.06 z M 3524.53,7608 3941.59,7356.83 c 35.91,41.19 88.76,67.21 147.64,67.21 73.21,0 137.01,-40.18 170.65,-99.69 l 553.4,194.9 c -286.15,71.7 -585.65,109.82 -894,109.82 -133.38,0 -265.04,-7.18 -394.75,-21.07 z m -909.78,-217.73 816.07,-660.89 c 8.97,6.44 18.93,11.68 29.43,15.61 l -69.41,846.22 c -269.24,-38.86 -529.08,-106.94 -776.09,-200.94 z m -772.22,-405.34 261.13,-372.1 c 32.7,16.65 69.75,26.02 108.93,26.02 14.74,0 29.21,-1.35 43.25,-3.88 l 236,705.96 c -229.3,-96.93 -446.63,-216.54 -649.31,-356 z m -674.87,-598.07 805.51,35.04 c 5.8,59.65 33.41,112.89 74.76,151.73 l -261.16,372.19 c -164.58,-117.77 -319.06,-248.76 -461.79,-391.54 -54.19,-54.13 -106.61,-109.99 -157.32,-167.42 z m -591.93,-914.04 412.461,114.08 58.329,655.4 C 859.742,6007.48 701.066,5749.31 575.73,5472.82 Z m 447.98,52.58 -483.265,-132.97 C 483.941,5259.36 435.129,5122.27 394.453,4981.71 l 537.586,-386.32 c 36.242,35.67 85.991,57.73 140.891,57.73 24.89,0 48.76,-4.54 70.75,-12.82 l 196.94,336.33 -316.91,548.77 z m 623.48,61.5 -527.86,670.42 -61.85,-670.42 h 589.71 z m 767.35,0 -167.69,573.23 c -11.18,-1.62 -22.62,-2.45 -34.26,-2.45 -32.22,0 -62.97,6.34 -91.05,17.84 L 1776.82,5586.9 h 637.72 z m 978.63,0 -95.08,194.45 c -15.05,-4.08 -30.84,-6.25 -47.13,-6.25 -99.39,0 -180.02,80.6 -180.02,179.98 0,13.05 1.44,25.81 4.1,38.07 l -656.71,280.32 c -25.02,-41.18 -62.07,-74.22 -106.23,-94.32 l 173.26,-592.25 h 907.81 z m 2218.65,0 -280.33,248.17 c -41.98,-35.71 -96.39,-57.28 -155.8,-57.28 -73.51,0 -139.38,33.01 -183.49,85 L 4553.48,5586.9 h 1058.34 z m 710.92,0 -191.83,535.88 c -4.42,-0.45 -8.89,-0.64 -13.43,-0.64 -13.56,0 -26.65,1.97 -39.04,5.57 L 5761.07,5586.9 h 561.67 z m 448.29,0 201.21,375.22 -735.7,226.98 c -10.52,-17.28 -24.7,-32.04 -41.45,-43.31 l 200.04,-558.89 h 375.9 z m -431.53,-884.52 528.33,-611.91 c 9.02,4.97 18.54,9.06 28.47,12.18 l -128.68,1341 -428.12,-741.27 z m -586.89,-1016.24 1031.32,257.56 -0.09,5.14 c 0,36.5 12.13,70.16 32.55,97.18 l -512.89,594.03 -550.89,-953.91 z m -275.4,-395.59 170.46,348.24 -3.12,20.36 4.31,1.08 V 4775.48 H 4822.5 l 569.1,-1481.17 c 11.24,2.1 22.85,3.22 34.72,3.22 17.63,0 34.74,-2.43 50.89,-6.98 z m -1420.4,2922.51 c 16.87,13.76 36.61,24.13 58.18,30.19 l -48.05,790.31 c -32.27,3.66 -62.16,15.18 -87.72,32.58 l -365.6,-376.21 c 10.93,-18.73 17.23,-40.5 17.23,-63.72 0,-18.34 -3.92,-35.8 -10.96,-51.54 l 436.92,-361.61 z m -43.68,-194.86 c -10.15,21.1 -15.86,44.8 -15.86,69.82 0,25.83 6.11,50.25 16.92,71.9 l -437.74,362.29 c -20.51,-14.25 -45.39,-22.64 -72.24,-22.64 -3.81,0 -7.54,0.15 -11.23,0.49 l -147.8,-391.65 c 51.41,-31.67 85.76,-88.52 85.76,-153.33 0,-58.81 -28.23,-111.02 -71.84,-143.88 l 101,-206.56 553.03,413.56 z m 186.42,-86.02 c -13.13,-3.45 -26.89,-5.31 -41.1,-5.31 -39.36,0 -75.42,14.12 -103.41,37.52 L 3550.22,5586.9 h 258.43 34.12 V 5552.76 1672.22 788.922 l 691.14,-435.902 677.82,780.7 c -4.85,6.15 -9.27,12.62 -13.26,19.38 L 3995.73,724.07 v 46.141 24.34 877.669 3880.54 34.14 h 34.12 349.31 l -179.61,345.28 z m 97.77,237.62 c 14.16,-23.95 22.28,-51.93 22.28,-81.78 0,-50.38 -23.11,-95.33 -59.29,-124.89 l 188.24,-361.89 507.37,319.12 c -13.36,29.95 -20.8,63.1 -20.8,98.02 0,88.61 47.92,166.04 119.28,207.78 l -163.3,401.38 c -6.32,-0.88 -12.75,-1.33 -19.31,-1.33 -27.25,0 -52.68,7.81 -74.16,21.38 L 4297.32,6169.8 Z m -114.35,77.52 c 25.08,-3.84 48.3,-13.46 68.2,-27.5 l 499.43,477 c -11.51,20.27 -18.1,43.71 -18.1,68.7 0,13.68 1.98,26.88 5.66,39.37 l -500.22,295.79 c -26.42,-30.77 -62.25,-53.25 -103,-63.01 l 48.03,-790.35 z m -263.69,1449.99 c 1031.82,0 1966.18,-418.42 2642.52,-1094.78 C 7238.16,5926.19 7656.57,4991.81 7656.57,3959.99 7656.57,2928.17 7238.16,1993.8 6561.8,1317.46 5885.46,641.09 4951.1,222.691 3919.28,222.691 2887.43,222.691 1953.07,641.09 1276.73,1317.46 600.363,1993.8 181.949,2928.17 181.949,3959.99 c 0,1031.82 418.414,1966.2 1094.781,2642.54 676.34,676.36 1610.7,1094.78 2642.55,1094.78 v 0" /></g></g></svg>